<svg width="79" height="50" viewBox="0 0 79 50" fill="none" xmlns="http://www.w3.org/2000/svg">
<path d="M44.3753 1.03284C33.5669 13.5386 11.0855 40.7555 7.62682 49.5764C14.6403 41.796 29.6183 25.3762 33.4228 21.9395M33.4228 21.9395C37.2274 18.5028 38.0824 18.1209 38.0344 18.3596C35.3443 21.0326 29.3877 27.5814 27.0819 32.3928C24.1997 38.4071 27.0819 39.6958 32.9905 34.3976C37.7173 30.159 41.2048 25.3762 42.3577 23.5147C40.8686 25.8058 37.6885 30.8749 36.8815 32.8224C35.8727 35.2567 35.8727 37.9775 41.4931 34.3976C45.9893 31.5336 48.3624 27.0946 48.9869 25.233C48.0261 26.2354 45.7876 29.2711 44.5194 33.3952C44.3273 34.2066 44.6347 35.4859 47.4016 34.1112C50.8603 32.3928 55.0396 28.0969 57.9218 22.6555L51.5809 34.8272C51.2927 35.0181 50.8315 35.2281 51.2927 34.5408C51.7538 33.8534 57.8257 27.8583 60.804 24.9466L48.9869 45.5669C48.9869 45.5669 47.2577 48.1444 47.4016 44.9941C47.5624 41.4756 51.0044 38.8367 54.6072 34.3976C57.4895 30.8463 60.5158 28.9084 61.6687 28.3833C62.1491 28.0969 63.8592 27.4096 66.8567 26.9514C69.8542 26.4931 75.7916 25.4239 78.3856 24.9466M33.4228 21.9395C34.7198 18.9324 34.1433 12.9181 26.2172 13.6341C23.9114 14.3501 21.9227 17.7582 23.7673 22.2259C24.1997 22.9419 25.3526 24.5457 26.5054 25.233C27.6583 25.9204 25.2058 24.1231 24.1997 24.0874C20.1645 23.9442 12.7572 26.0063 5.60926 31.9632C0.80554 36.5932 -2.3167 45.5669 8.63561 38.1207C12.7137 35.3481 15.2647 33.7389 18.7234 30.5313" stroke="#192F4E" stroke-width="1.24471"/>
<path d="M44.3753 1.03284C33.5669 13.5386 11.0855 40.7555 7.62682 49.5764C14.6403 41.796 29.6183 25.3762 33.4228 21.9395M33.4228 21.9395C37.2274 18.5028 38.0824 18.1209 38.0344 18.3596C35.3443 21.0326 29.3877 27.5814 27.0819 32.3928C24.1997 38.4071 27.0819 39.6958 32.9905 34.3976C37.7173 30.159 41.2048 25.3762 42.3577 23.5147C40.8686 25.8058 37.6885 30.8749 36.8815 32.8224C35.8727 35.2567 35.8727 37.9775 41.4931 34.3976C45.9893 31.5336 48.3624 27.0946 48.9869 25.233C48.0261 26.2354 45.7876 29.2711 44.5194 33.3952C44.3273 34.2066 44.6347 35.4859 47.4016 34.1112C50.8603 32.3928 55.0396 28.0969 57.9218 22.6555L51.5809 34.8272C51.2927 35.0181 50.8315 35.2281 51.2927 34.5408C51.7538 33.8534 57.8257 27.8583 60.804 24.9466L48.9869 45.5669C48.9869 45.5669 47.2577 48.1444 47.4016 44.9941C47.5624 41.4756 51.0044 38.8367 54.6072 34.3976C57.4895 30.8463 60.5158 28.9084 61.6687 28.3833C62.1491 28.0969 63.8592 27.4096 66.8567 26.9514C69.8542 26.4931 75.7916 25.4239 78.3856 24.9466M33.4228 21.9395C34.7198 18.9324 34.1433 12.9181 26.2172 13.6341C23.9114 14.3501 21.9227 17.7582 23.7673 22.2259C24.1997 22.9419 25.3526 24.5457 26.5054 25.233C27.6583 25.9204 25.2058 24.1231 24.1997 24.0874C20.1645 23.9442 12.7572 26.0063 5.60926 31.9632C0.80554 36.5932 -2.3167 45.5669 8.63561 38.1207C12.7137 35.3481 15.2647 33.7389 18.7234 30.5313" stroke="url(#paint0_linear_45_6973)" stroke-opacity="0.2" stroke-width="1.24471"/>
<defs>
<linearGradient id="paint0_linear_45_6973" x1="1.21387" y1="-10.6077" x2="81.692" y2="-9.52022" gradientUnits="userSpaceOnUse">
<stop stop-color="white"/>
<stop offset="0.276042" stop-color="white" stop-opacity="0"/>
<stop offset="0.46875" stop-color="white"/>
<stop offset="0.703125" stop-color="white" stop-opacity="0"/>
<stop offset="1" stop-color="white"/>
</linearGradient>
</defs>
</svg>
