<svg width="24" height="26" viewBox="0 0 24 26" fill="none" xmlns="http://www.w3.org/2000/svg">
<path d="M0.75 25.256V25.506H1H12.136H12.386V25.256V24.936V24.686H12.136H8.642V18.178H16.296H16.546V17.928V17.608V17.358H16.296H8.642V14.274H12.84C15.7168 14.274 18.2722 13.6929 20.1172 12.5316C21.9724 11.3638 23.106 9.60855 23.106 7.304C23.106 5.95786 22.7791 4.8621 22.1921 3.98C21.6059 3.09913 20.7712 2.44753 19.7804 1.97073C17.8075 1.02127 15.1842 0.75 12.552 0.75H1H0.75V1V1.32V1.57H1H3.79V13.454H1.064H0.814V13.704V14.024V14.274H1.064H3.79V17.358H1.064H0.814V17.608V17.928V18.178H1.064H3.79V24.686H1H0.75V24.936V25.256ZM8.642 1.57H12.808C14.3704 1.57 15.6354 2.17258 16.5135 3.20589C17.395 4.24318 17.902 5.73351 17.902 7.528C17.902 9.32244 17.3951 10.8044 16.5141 11.8334C15.6364 12.8586 14.3715 13.454 12.808 13.454H8.642V1.57Z" fill="#BAACA1" stroke="#BAACA1" stroke-width="0.5"/>
</svg>
